<svg xmlns="http://www.w3.org/2000/svg" viewBox="0 0 980 240" role="img" aria-label="Perfection Painting and Decorating">
<defs>
  <linearGradient id="gold" x1="0" y1="0" x2="1" y2="1"><stop stop-color="#f6d47a"/><stop offset=".48" stop-color="#c99735"/><stop offset="1" stop-color="#8b611d"/></linearGradient>
  <filter id="shadow" x="-20%" y="-20%" width="140%" height="140%"><feDropShadow dx="0" dy="5" stdDeviation="5" flood-opacity=".28"/></filter>
</defs>
<g filter="url(#shadow)">
  <circle cx="120" cy="120" r="92" fill="#0b0b0b" stroke="url(#gold)" stroke-width="8"/>
  <path d="M64 146V92c0-17 13-30 30-30h41c30 0 49 15 49 40 0 26-19 42-50 42h-30v32H80v-30zm40-24h28c17 0 26-6 26-19 0-12-9-18-26-18h-28z" fill="url(#gold)"/>
  <path d="M161 67l21-16 8 11-22 15zm16 24 28-8 4 14-29 6zm2 28 28 5-3 14-28-7z" fill="#f0c45b"/>
  <path d="M50 178c43 18 91 19 137 1" fill="none" stroke="#f0c45b" stroke-width="4" stroke-linecap="round"/>
</g>
<text x="245" y="115" font-family="Georgia,Times New Roman,serif" font-size="76" font-weight="700" letter-spacing="1" fill="#ffffff">PERFECTION</text>
<line x1="250" y1="139" x2="895" y2="139" stroke="url(#gold)" stroke-width="3"/>
<text x="250" y="184" font-family="Arial,Helvetica,sans-serif" font-size="27" font-weight="700" letter-spacing="8" fill="#d7aa4a">PAINTING &amp; DECORATING</text>
</svg>