<svg xmlns="http://www.w3.org/2000/svg" viewBox="0 0 900 250" role="img" aria-label="CC Jet Wash">
<defs>
  <linearGradient id="blue" x1="0" y1="0" x2="1" y2="1">
    <stop stop-color="#4bd4ff"/><stop offset=".52" stop-color="#119dff"/><stop offset="1" stop-color="#0056d8"/>
  </linearGradient>
  <filter id="shadow"><feDropShadow dx="0" dy="8" stdDeviation="8" flood-color="#000" flood-opacity=".28"/></filter>
</defs>
<g filter="url(#shadow)">
  <circle cx="125" cy="125" r="106" fill="#041528" stroke="#fff" stroke-width="9"/>
  <circle cx="125" cy="125" r="92" fill="none" stroke="url(#blue)" stroke-width="17"/>
  <path d="M49 103C67 62 103 37 146 36c38-1 73 15 96 45-25-16-52-22-80-18-43 5-78 30-97 64z" fill="#fff"/>
  <path d="M192 47c31 4 57 15 77 31-20-3-36-3-51 1 22 6 39 16 52 29-21-2-38 1-52 7 14 8 24 19 31 33-18-6-34-7-48-4" fill="none" stroke="url(#blue)" stroke-width="14" stroke-linecap="round"/>
  <g transform="translate(67 101) rotate(-31)">
    <rect x="0" y="0" width="112" height="18" rx="9" fill="#020b14"/>
    <path d="M1 6h-26c-8 0-14 7-12 15l6 29h28l6-28c2-9-4-16-12-16z" fill="#020b14"/>
    <rect x="-18" y="42" width="13" height="47" rx="5" fill="#020b14"/>
  </g>
  <path d="M159 127l11 20 23 4-17 16 4 23-21-11-21 11 4-23-17-16 24-4z" fill="#fff"/>
</g>
<text x="270" y="131" font-family="Arial Black,Arial,sans-serif" font-size="88" font-weight="900" fill="#fff">CC</text>
<text x="402" y="131" font-family="Arial Black,Arial,sans-serif" font-size="88" font-weight="900" fill="url(#blue)">JET</text>
<text x="593" y="131" font-family="Arial Black,Arial,sans-serif" font-size="88" font-weight="900" fill="#fff">WASH</text>
<text x="276" y="177" font-family="Arial,Helvetica,sans-serif" font-size="23" font-weight="700" letter-spacing="6" fill="#74cfff">EXTERIOR CLEANING · NOTTINGHAMSHIRE</text>
</svg>